
  <svg width='813px'
       height='361.0487547258474px'
       viewBox='0 0 813 361.0487547258474'
       xmlns='http://www.w3.org/2000/svg'
       xmlns:xlink="http://www.w3.org/1999/xlink">

    <style type='text/css'>
    .keycap .border { stroke: black; stroke-width: 2; }
    .keycap .inner.border { stroke: rgba(0,0,0,.1); }
    </style>
    <defs>
      <linearGradient id="DCS">
        <stop offset="0%" stop-color="black" stop-opacity="0"/>
        <stop offset="40%" stop-color="black" stop-opacity="0.1"/>
        <stop offset="60%" stop-color="black" stop-opacity="0.1"/>
        <stop offset="100%" stop-color="black" stop-opacity="0"/>
      </linearGradient>
      <linearGradient id="SPACE" x1="0%" x2="0%" y1="0%" y2="100%">
        <stop offset="0%" stop-color="black" stop-opacity="0.1"/>
        <stop offset="20%" stop-color="black" stop-opacity="0.0"/>
        <stop offset="40%" stop-color="black" stop-opacity="0.0"/>
        <stop offset="100%" stop-color="black" stop-opacity="0.1"/>
      </linearGradient>
      <radialGradient id="DSA">
        <stop offset="0%" stop-color="black" stop-opacity="0.1"/>
        <stop offset="10%" stop-color="black" stop-opacity="0.1"/>
        <stop offset="100%" stop-color="black" stop-opacity="0"/>
      </radialGradient>
      <radialGradient id="SA" xlink:href="#DSA" />
    </defs>

    <g transform='translate(10,10)'>
      <rect width="793" height="341.0487547258474"
            stroke="#ddd" stroke-width="1" fill="#ffffff" rx="6"/>
      <g transform='translate(5,5)'>
        
  <g class='  keycap'
  >

  
    <!-- Outer Border -->
    <rect x="163" y="55"
          width="52" height="52"
          rx="5" fill="#212224" class="outer border"/>
    
    <!-- Outer Fill -->
    <rect x="163" y="55"
          width="52" height="52"
          rx="5" fill="#212224"/>
    

    
      <!-- Inner Border -->
      <rect x="169" y="59"
            width="40" height="40"
            rx="5" fill="#26272a" class="inner border"/>
      
      <!-- Inner Fill -->
      <rect x="169" y="59"
            width="40" height="40"
            rx="5" fill="#26272a"/>
      
      
        
        
        <rect x="169" y="59"
              width="40" height="40"
              rx="5" fill="url(#SA)"/>
      

     
   
  </g>

  <g class='  keycap'
  >

  
    <!-- Outer Border -->
    <rect x="568" y="55"
          width="52" height="52"
          rx="5" fill="#212224" class="outer border"/>
    
    <!-- Outer Fill -->
    <rect x="568" y="55"
          width="52" height="52"
          rx="5" fill="#212224"/>
    

    
      <!-- Inner Border -->
      <rect x="574" y="59"
            width="40" height="40"
            rx="5" fill="#26272a" class="inner border"/>
      
      <!-- Inner Fill -->
      <rect x="574" y="59"
            width="40" height="40"
            rx="5" fill="#26272a"/>
      
      
        
        
        <rect x="574" y="59"
              width="40" height="40"
              rx="5" fill="url(#SA)"/>
      

     
   
  </g>

  <g class='  keycap'
  >

  
    <!-- Outer Border -->
    <rect x="217" y="62.019999999999996"
          width="52" height="52"
          rx="5" fill="#212224" class="outer border"/>
    
    <!-- Outer Fill -->
    <rect x="217" y="62.019999999999996"
          width="52" height="52"
          rx="5" fill="#212224"/>
    

    
      <!-- Inner Border -->
      <rect x="223" y="66.02"
            width="40" height="40"
            rx="5" fill="#26272a" class="inner border"/>
      
      <!-- Inner Fill -->
      <rect x="223" y="66.02"
            width="40" height="40"
            rx="5" fill="#26272a"/>
      
      
        
        
        <rect x="223" y="66.02"
              width="40" height="40"
              rx="5" fill="url(#SA)"/>
      

     
   
  </g>

  <g class='  keycap'
  >

  
    <!-- Outer Border -->
    <rect x="514" y="62.019999999999996"
          width="52" height="52"
          rx="5" fill="#212224" class="outer border"/>
    
    <!-- Outer Fill -->
    <rect x="514" y="62.019999999999996"
          width="52" height="52"
          rx="5" fill="#212224"/>
    

    
      <!-- Inner Border -->
      <rect x="520" y="66.02"
            width="40" height="40"
            rx="5" fill="#26272a" class="inner border"/>
      
      <!-- Inner Fill -->
      <rect x="520" y="66.02"
            width="40" height="40"
            rx="5" fill="#26272a"/>
      
      
        
        
        <rect x="520" y="66.02"
              width="40" height="40"
              rx="5" fill="url(#SA)"/>
      

     
   
  </g>

  <g class='  keycap'
  >

  
    <!-- Outer Border -->
    <rect x="622" y="62.019999999999996"
          width="52" height="52"
          rx="5" fill="#212224" class="outer border"/>
    
    <!-- Outer Fill -->
    <rect x="622" y="62.019999999999996"
          width="52" height="52"
          rx="5" fill="#212224"/>
    

    
      <!-- Inner Border -->
      <rect x="628" y="66.02"
            width="40" height="40"
            rx="5" fill="#26272a" class="inner border"/>
      
      <!-- Inner Fill -->
      <rect x="628" y="66.02"
            width="40" height="40"
            rx="5" fill="#26272a"/>
      
      
        
        
        <rect x="628" y="66.02"
              width="40" height="40"
              rx="5" fill="url(#SA)"/>
      

     
   
  </g>

  <g class='  keycap'
  >

  
    <!-- Outer Border -->
    <rect x="109" y="62.022376"
          width="52" height="52"
          rx="5" fill="#212224" class="outer border"/>
    
    <!-- Outer Fill -->
    <rect x="109" y="62.022376"
          width="52" height="52"
          rx="5" fill="#212224"/>
    

    
      <!-- Inner Border -->
      <rect x="115" y="66.02237600000001"
            width="40" height="40"
            rx="5" fill="#26272a" class="inner border"/>
      
      <!-- Inner Fill -->
      <rect x="115" y="66.02237600000001"
            width="40" height="40"
            rx="5" fill="#26272a"/>
      
      
        
        
        <rect x="115" y="66.02237600000001"
              width="40" height="40"
              rx="5" fill="url(#SA)"/>
      

     
   
  </g>

  <g class='  keycap'
  >

  
    <!-- Outer Border -->
    <rect x="271" y="68.5"
          width="52" height="52"
          rx="5" fill="#212224" class="outer border"/>
    
    <!-- Outer Fill -->
    <rect x="271" y="68.5"
          width="52" height="52"
          rx="5" fill="#212224"/>
    

    
      <!-- Inner Border -->
      <rect x="277" y="72.5"
            width="40" height="40"
            rx="5" fill="#26272a" class="inner border"/>
      
      <!-- Inner Fill -->
      <rect x="277" y="72.5"
            width="40" height="40"
            rx="5" fill="#26272a"/>
      
      
        
        
        <rect x="277" y="72.5"
              width="40" height="40"
              rx="5" fill="url(#SA)"/>
      

     
   
  </g>

  <g class='  keycap'
  >

  
    <!-- Outer Border -->
    <rect x="460" y="68.5"
          width="52" height="52"
          rx="5" fill="#212224" class="outer border"/>
    
    <!-- Outer Fill -->
    <rect x="460" y="68.5"
          width="52" height="52"
          rx="5" fill="#212224"/>
    

    
      <!-- Inner Border -->
      <rect x="466" y="72.5"
            width="40" height="40"
            rx="5" fill="#26272a" class="inner border"/>
      
      <!-- Inner Fill -->
      <rect x="466" y="72.5"
            width="40" height="40"
            rx="5" fill="#26272a"/>
      
      
        
        
        <rect x="466" y="72.5"
              width="40" height="40"
              rx="5" fill="url(#SA)"/>
      

     
   
  </g>

  <g class='  keycap'
  >

  
    <!-- Outer Border -->
    <rect x="1" y="75.52"
          width="52" height="52"
          rx="5" fill="#212224" class="outer border"/>
    
    <!-- Outer Fill -->
    <rect x="1" y="75.52"
          width="52" height="52"
          rx="5" fill="#212224"/>
    

    
      <!-- Inner Border -->
      <rect x="7" y="79.52"
            width="40" height="40"
            rx="5" fill="#26272a" class="inner border"/>
      
      <!-- Inner Fill -->
      <rect x="7" y="79.52"
            width="40" height="40"
            rx="5" fill="#26272a"/>
      
      
        
        
        <rect x="7" y="79.52"
              width="40" height="40"
              rx="5" fill="url(#SA)"/>
      

     
   
  </g>

  <g class='  keycap'
  >

  
    <!-- Outer Border -->
    <rect x="55" y="75.52"
          width="52" height="52"
          rx="5" fill="#212224" class="outer border"/>
    
    <!-- Outer Fill -->
    <rect x="55" y="75.52"
          width="52" height="52"
          rx="5" fill="#212224"/>
    

    
      <!-- Inner Border -->
      <rect x="61" y="79.52"
            width="40" height="40"
            rx="5" fill="#26272a" class="inner border"/>
      
      <!-- Inner Fill -->
      <rect x="61" y="79.52"
            width="40" height="40"
            rx="5" fill="#26272a"/>
      
      
        
        
        <rect x="61" y="79.52"
              width="40" height="40"
              rx="5" fill="url(#SA)"/>
      

     
   
  </g>

  <g class='  keycap'
  >

  
    <!-- Outer Border -->
    <rect x="676" y="75.52"
          width="52" height="52"
          rx="5" fill="#212224" class="outer border"/>
    
    <!-- Outer Fill -->
    <rect x="676" y="75.52"
          width="52" height="52"
          rx="5" fill="#212224"/>
    

    
      <!-- Inner Border -->
      <rect x="682" y="79.52"
            width="40" height="40"
            rx="5" fill="#26272a" class="inner border"/>
      
      <!-- Inner Fill -->
      <rect x="682" y="79.52"
            width="40" height="40"
            rx="5" fill="#26272a"/>
      
      
        
        
        <rect x="682" y="79.52"
              width="40" height="40"
              rx="5" fill="url(#SA)"/>
      

     
   
  </g>

  <g class='  keycap'
  >

  
    <!-- Outer Border -->
    <rect x="730" y="75.52"
          width="52" height="52"
          rx="5" fill="#212224" class="outer border"/>
    
    <!-- Outer Fill -->
    <rect x="730" y="75.52"
          width="52" height="52"
          rx="5" fill="#212224"/>
    

    
      <!-- Inner Border -->
      <rect x="736" y="79.52"
            width="40" height="40"
            rx="5" fill="#26272a" class="inner border"/>
      
      <!-- Inner Fill -->
      <rect x="736" y="79.52"
            width="40" height="40"
            rx="5" fill="#26272a"/>
      
      
        
        
        <rect x="736" y="79.52"
              width="40" height="40"
              rx="5" fill="url(#SA)"/>
      

     
   
  </g>

  <g class='  keycap'
  >

  
    <!-- Outer Border -->
    <rect x="163" y="109"
          width="52" height="52"
          rx="5" fill="#212224" class="outer border"/>
    
    <!-- Outer Fill -->
    <rect x="163" y="109"
          width="52" height="52"
          rx="5" fill="#212224"/>
    

    
      <!-- Inner Border -->
      <rect x="169" y="113"
            width="40" height="40"
            rx="5" fill="#26272a" class="inner border"/>
      
      <!-- Inner Fill -->
      <rect x="169" y="113"
            width="40" height="40"
            rx="5" fill="#26272a"/>
      
      
        
        
        <rect x="169" y="113"
              width="40" height="40"
              rx="5" fill="url(#SA)"/>
      

     
   
  </g>

  <g class='  keycap'
  >

  
    <!-- Outer Border -->
    <rect x="568" y="109"
          width="52" height="52"
          rx="5" fill="#212224" class="outer border"/>
    
    <!-- Outer Fill -->
    <rect x="568" y="109"
          width="52" height="52"
          rx="5" fill="#212224"/>
    

    
      <!-- Inner Border -->
      <rect x="574" y="113"
            width="40" height="40"
            rx="5" fill="#26272a" class="inner border"/>
      
      <!-- Inner Fill -->
      <rect x="574" y="113"
            width="40" height="40"
            rx="5" fill="#26272a"/>
      
      
        
        
        <rect x="574" y="113"
              width="40" height="40"
              rx="5" fill="url(#SA)"/>
      

     
   
  </g>

  <g class='  keycap'
  >

  
    <!-- Outer Border -->
    <rect x="109" y="116.02"
          width="52" height="52"
          rx="5" fill="#212224" class="outer border"/>
    
    <!-- Outer Fill -->
    <rect x="109" y="116.02"
          width="52" height="52"
          rx="5" fill="#212224"/>
    

    
      <!-- Inner Border -->
      <rect x="115" y="120.02"
            width="40" height="40"
            rx="5" fill="#26272a" class="inner border"/>
      
      <!-- Inner Fill -->
      <rect x="115" y="120.02"
            width="40" height="40"
            rx="5" fill="#26272a"/>
      
      
        
        
        <rect x="115" y="120.02"
              width="40" height="40"
              rx="5" fill="url(#SA)"/>
      

     
   
  </g>

  <g class='  keycap'
  >

  
    <!-- Outer Border -->
    <rect x="514.54" y="116.02"
          width="52" height="52"
          rx="5" fill="#212224" class="outer border"/>
    
    <!-- Outer Fill -->
    <rect x="514.54" y="116.02"
          width="52" height="52"
          rx="5" fill="#212224"/>
    

    
      <!-- Inner Border -->
      <rect x="520.54" y="120.02"
            width="40" height="40"
            rx="5" fill="#26272a" class="inner border"/>
      
      <!-- Inner Fill -->
      <rect x="520.54" y="120.02"
            width="40" height="40"
            rx="5" fill="#26272a"/>
      
      
        
        
        <rect x="520.54" y="120.02"
              width="40" height="40"
              rx="5" fill="url(#SA)"/>
      

     
   
  </g>

  <g class='  keycap'
  >

  
    <!-- Outer Border -->
    <rect x="622" y="116.02"
          width="52" height="52"
          rx="5" fill="#212224" class="outer border"/>
    
    <!-- Outer Fill -->
    <rect x="622" y="116.02"
          width="52" height="52"
          rx="5" fill="#212224"/>
    

    
      <!-- Inner Border -->
      <rect x="628" y="120.02"
            width="40" height="40"
            rx="5" fill="#26272a" class="inner border"/>
      
      <!-- Inner Fill -->
      <rect x="628" y="120.02"
            width="40" height="40"
            rx="5" fill="#26272a"/>
      
      
        
        
        <rect x="628" y="120.02"
              width="40" height="40"
              rx="5" fill="url(#SA)"/>
      

     
   
  </g>

  <g class='  keycap'
  >

  
    <!-- Outer Border -->
    <rect x="217" y="116.022376"
          width="52" height="52"
          rx="5" fill="#212224" class="outer border"/>
    
    <!-- Outer Fill -->
    <rect x="217" y="116.022376"
          width="52" height="52"
          rx="5" fill="#212224"/>
    

    
      <!-- Inner Border -->
      <rect x="223" y="120.022376"
            width="40" height="40"
            rx="5" fill="#26272a" class="inner border"/>
      
      <!-- Inner Fill -->
      <rect x="223" y="120.022376"
            width="40" height="40"
            rx="5" fill="#26272a"/>
      
      
        
        
        <rect x="223" y="120.022376"
              width="40" height="40"
              rx="5" fill="url(#SA)"/>
      

     
   
  </g>

  <g class='  keycap'
  >

  
    <!-- Outer Border -->
    <rect x="271" y="122.5"
          width="52" height="52"
          rx="5" fill="#212224" class="outer border"/>
    
    <!-- Outer Fill -->
    <rect x="271" y="122.5"
          width="52" height="52"
          rx="5" fill="#212224"/>
    

    
      <!-- Inner Border -->
      <rect x="277" y="126.5"
            width="40" height="40"
            rx="5" fill="#26272a" class="inner border"/>
      
      <!-- Inner Fill -->
      <rect x="277" y="126.5"
            width="40" height="40"
            rx="5" fill="#26272a"/>
      
      
        
        
        <rect x="277" y="126.5"
              width="40" height="40"
              rx="5" fill="url(#SA)"/>
      

     
   
  </g>

  <g class='  keycap'
  >

  
    <!-- Outer Border -->
    <rect x="460" y="122.5"
          width="52" height="52"
          rx="5" fill="#212224" class="outer border"/>
    
    <!-- Outer Fill -->
    <rect x="460" y="122.5"
          width="52" height="52"
          rx="5" fill="#212224"/>
    

    
      <!-- Inner Border -->
      <rect x="466" y="126.5"
            width="40" height="40"
            rx="5" fill="#26272a" class="inner border"/>
      
      <!-- Inner Fill -->
      <rect x="466" y="126.5"
            width="40" height="40"
            rx="5" fill="#26272a"/>
      
      
        
        
        <rect x="466" y="126.5"
              width="40" height="40"
              rx="5" fill="url(#SA)"/>
      

     
   
  </g>

  <g class='  keycap'
  >

  
    <!-- Outer Border -->
    <rect x="1" y="129.51999999999998"
          width="52" height="52"
          rx="5" fill="#212224" class="outer border"/>
    
    <!-- Outer Fill -->
    <rect x="1" y="129.51999999999998"
          width="52" height="52"
          rx="5" fill="#212224"/>
    

    
      <!-- Inner Border -->
      <rect x="7" y="133.51999999999998"
            width="40" height="40"
            rx="5" fill="#26272a" class="inner border"/>
      
      <!-- Inner Fill -->
      <rect x="7" y="133.51999999999998"
            width="40" height="40"
            rx="5" fill="#26272a"/>
      
      
        
        
        <rect x="7" y="133.51999999999998"
              width="40" height="40"
              rx="5" fill="url(#SA)"/>
      

     
   
  </g>

  <g class='  keycap'
  >

  
    <!-- Outer Border -->
    <rect x="55" y="129.51999999999998"
          width="52" height="52"
          rx="5" fill="#212224" class="outer border"/>
    
    <!-- Outer Fill -->
    <rect x="55" y="129.51999999999998"
          width="52" height="52"
          rx="5" fill="#212224"/>
    

    
      <!-- Inner Border -->
      <rect x="61" y="133.51999999999998"
            width="40" height="40"
            rx="5" fill="#26272a" class="inner border"/>
      
      <!-- Inner Fill -->
      <rect x="61" y="133.51999999999998"
            width="40" height="40"
            rx="5" fill="#26272a"/>
      
      
        
        
        <rect x="61" y="133.51999999999998"
              width="40" height="40"
              rx="5" fill="url(#SA)"/>
      

     
   
  </g>

  <g class='  keycap'
  >

  
    <!-- Outer Border -->
    <rect x="676" y="129.51999999999998"
          width="52" height="52"
          rx="5" fill="#212224" class="outer border"/>
    
    <!-- Outer Fill -->
    <rect x="676" y="129.51999999999998"
          width="52" height="52"
          rx="5" fill="#212224"/>
    

    
      <!-- Inner Border -->
      <rect x="682" y="133.51999999999998"
            width="40" height="40"
            rx="5" fill="#26272a" class="inner border"/>
      
      <!-- Inner Fill -->
      <rect x="682" y="133.51999999999998"
            width="40" height="40"
            rx="5" fill="#26272a"/>
      
      
        
        
        <rect x="682" y="133.51999999999998"
              width="40" height="40"
              rx="5" fill="url(#SA)"/>
      

     
   
  </g>

  <g class='  keycap'
  >

  
    <!-- Outer Border -->
    <rect x="730" y="129.51999999999998"
          width="52" height="52"
          rx="5" fill="#212224" class="outer border"/>
    
    <!-- Outer Fill -->
    <rect x="730" y="129.51999999999998"
          width="52" height="52"
          rx="5" fill="#212224"/>
    

    
      <!-- Inner Border -->
      <rect x="736" y="133.51999999999998"
            width="40" height="40"
            rx="5" fill="#26272a" class="inner border"/>
      
      <!-- Inner Fill -->
      <rect x="736" y="133.51999999999998"
            width="40" height="40"
            rx="5" fill="#26272a"/>
      
      
        
        
        <rect x="736" y="133.51999999999998"
              width="40" height="40"
              rx="5" fill="url(#SA)"/>
      

     
   
  </g>

  <g class='  keycap'
  >

  
    <!-- Outer Border -->
    <rect x="163" y="163"
          width="52" height="52"
          rx="5" fill="#212224" class="outer border"/>
    
    <!-- Outer Fill -->
    <rect x="163" y="163"
          width="52" height="52"
          rx="5" fill="#212224"/>
    

    
      <!-- Inner Border -->
      <rect x="169" y="167"
            width="40" height="40"
            rx="5" fill="#26272a" class="inner border"/>
      
      <!-- Inner Fill -->
      <rect x="169" y="167"
            width="40" height="40"
            rx="5" fill="#26272a"/>
      
      
        
        
        <rect x="169" y="167"
              width="40" height="40"
              rx="5" fill="url(#SA)"/>
      

     
   
  </g>

  <g class='  keycap'
  >

  
    <!-- Outer Border -->
    <rect x="568" y="163"
          width="52" height="52"
          rx="5" fill="#212224" class="outer border"/>
    
    <!-- Outer Fill -->
    <rect x="568" y="163"
          width="52" height="52"
          rx="5" fill="#212224"/>
    

    
      <!-- Inner Border -->
      <rect x="574" y="167"
            width="40" height="40"
            rx="5" fill="#26272a" class="inner border"/>
      
      <!-- Inner Fill -->
      <rect x="574" y="167"
            width="40" height="40"
            rx="5" fill="#26272a"/>
      
      
        
        
        <rect x="574" y="167"
              width="40" height="40"
              rx="5" fill="url(#SA)"/>
      

     
   
  </g>

  <g class='  keycap'
  >

  
    <!-- Outer Border -->
    <rect x="109" y="170.01999999999998"
          width="52" height="52"
          rx="5" fill="#212224" class="outer border"/>
    
    <!-- Outer Fill -->
    <rect x="109" y="170.01999999999998"
          width="52" height="52"
          rx="5" fill="#212224"/>
    

    
      <!-- Inner Border -->
      <rect x="115" y="174.01999999999998"
            width="40" height="40"
            rx="5" fill="#26272a" class="inner border"/>
      
      <!-- Inner Fill -->
      <rect x="115" y="174.01999999999998"
            width="40" height="40"
            rx="5" fill="#26272a"/>
      
      
        
        
        <rect x="115" y="174.01999999999998"
              width="40" height="40"
              rx="5" fill="url(#SA)"/>
      

     
   
  </g>

  <g class='  keycap'
  >

  
    <!-- Outer Border -->
    <rect x="514" y="170.01999999999998"
          width="52" height="52"
          rx="5" fill="#212224" class="outer border"/>
    
    <!-- Outer Fill -->
    <rect x="514" y="170.01999999999998"
          width="52" height="52"
          rx="5" fill="#212224"/>
    

    
      <!-- Inner Border -->
      <rect x="520" y="174.01999999999998"
            width="40" height="40"
            rx="5" fill="#26272a" class="inner border"/>
      
      <!-- Inner Fill -->
      <rect x="520" y="174.01999999999998"
            width="40" height="40"
            rx="5" fill="#26272a"/>
      
      
        
        
        <rect x="520" y="174.01999999999998"
              width="40" height="40"
              rx="5" fill="url(#SA)"/>
      

     
   
  </g>

  <g class='  keycap'
  >

  
    <!-- Outer Border -->
    <rect x="622" y="170.01999999999998"
          width="52" height="52"
          rx="5" fill="#212224" class="outer border"/>
    
    <!-- Outer Fill -->
    <rect x="622" y="170.01999999999998"
          width="52" height="52"
          rx="5" fill="#212224"/>
    

    
      <!-- Inner Border -->
      <rect x="628" y="174.01999999999998"
            width="40" height="40"
            rx="5" fill="#26272a" class="inner border"/>
      
      <!-- Inner Fill -->
      <rect x="628" y="174.01999999999998"
            width="40" height="40"
            rx="5" fill="#26272a"/>
      
      
        
        
        <rect x="628" y="174.01999999999998"
              width="40" height="40"
              rx="5" fill="url(#SA)"/>
      

     
   
  </g>

  <g class='  keycap'
  >

  
    <!-- Outer Border -->
    <rect x="217" y="170.02237599999998"
          width="52" height="52"
          rx="5" fill="#212224" class="outer border"/>
    
    <!-- Outer Fill -->
    <rect x="217" y="170.02237599999998"
          width="52" height="52"
          rx="5" fill="#212224"/>
    

    
      <!-- Inner Border -->
      <rect x="223" y="174.02237599999998"
            width="40" height="40"
            rx="5" fill="#26272a" class="inner border"/>
      
      <!-- Inner Fill -->
      <rect x="223" y="174.02237599999998"
            width="40" height="40"
            rx="5" fill="#26272a"/>
      
      
        
        
        <rect x="223" y="174.02237599999998"
              width="40" height="40"
              rx="5" fill="url(#SA)"/>
      

     
   
  </g>

  <g class='  keycap'
  >

  
    <!-- Outer Border -->
    <rect x="271" y="176.5"
          width="52" height="52"
          rx="5" fill="#212224" class="outer border"/>
    
    <!-- Outer Fill -->
    <rect x="271" y="176.5"
          width="52" height="52"
          rx="5" fill="#212224"/>
    

    
      <!-- Inner Border -->
      <rect x="277" y="180.5"
            width="40" height="40"
            rx="5" fill="#26272a" class="inner border"/>
      
      <!-- Inner Fill -->
      <rect x="277" y="180.5"
            width="40" height="40"
            rx="5" fill="#26272a"/>
      
      
        
        
        <rect x="277" y="180.5"
              width="40" height="40"
              rx="5" fill="url(#SA)"/>
      

     
   
  </g>

  <g class='  keycap'
  >

  
    <!-- Outer Border -->
    <rect x="460" y="176.5"
          width="52" height="52"
          rx="5" fill="#212224" class="outer border"/>
    
    <!-- Outer Fill -->
    <rect x="460" y="176.5"
          width="52" height="52"
          rx="5" fill="#212224"/>
    

    
      <!-- Inner Border -->
      <rect x="466" y="180.5"
            width="40" height="40"
            rx="5" fill="#26272a" class="inner border"/>
      
      <!-- Inner Fill -->
      <rect x="466" y="180.5"
            width="40" height="40"
            rx="5" fill="#26272a"/>
      
      
        
        
        <rect x="466" y="180.5"
              width="40" height="40"
              rx="5" fill="url(#SA)"/>
      

     
   
  </g>

  <g class='  keycap'
  >

  
    <!-- Outer Border -->
    <rect x="1" y="183.51999999999998"
          width="52" height="52"
          rx="5" fill="#212224" class="outer border"/>
    
    <!-- Outer Fill -->
    <rect x="1" y="183.51999999999998"
          width="52" height="52"
          rx="5" fill="#212224"/>
    

    
      <!-- Inner Border -->
      <rect x="7" y="187.51999999999998"
            width="40" height="40"
            rx="5" fill="#26272a" class="inner border"/>
      
      <!-- Inner Fill -->
      <rect x="7" y="187.51999999999998"
            width="40" height="40"
            rx="5" fill="#26272a"/>
      
      
        
        
        <rect x="7" y="187.51999999999998"
              width="40" height="40"
              rx="5" fill="url(#SA)"/>
      

     
   
  </g>

  <g class='  keycap'
  >

  
    <!-- Outer Border -->
    <rect x="55" y="183.51999999999998"
          width="52" height="52"
          rx="5" fill="#212224" class="outer border"/>
    
    <!-- Outer Fill -->
    <rect x="55" y="183.51999999999998"
          width="52" height="52"
          rx="5" fill="#212224"/>
    

    
      <!-- Inner Border -->
      <rect x="61" y="187.51999999999998"
            width="40" height="40"
            rx="5" fill="#26272a" class="inner border"/>
      
      <!-- Inner Fill -->
      <rect x="61" y="187.51999999999998"
            width="40" height="40"
            rx="5" fill="#26272a"/>
      
      
        
        
        <rect x="61" y="187.51999999999998"
              width="40" height="40"
              rx="5" fill="url(#SA)"/>
      

     
   
  </g>

  <g class='  keycap'
  >

  
    <!-- Outer Border -->
    <rect x="676" y="183.51999999999998"
          width="52" height="52"
          rx="5" fill="#212224" class="outer border"/>
    
    <!-- Outer Fill -->
    <rect x="676" y="183.51999999999998"
          width="52" height="52"
          rx="5" fill="#212224"/>
    

    
      <!-- Inner Border -->
      <rect x="682" y="187.51999999999998"
            width="40" height="40"
            rx="5" fill="#26272a" class="inner border"/>
      
      <!-- Inner Fill -->
      <rect x="682" y="187.51999999999998"
            width="40" height="40"
            rx="5" fill="#26272a"/>
      
      
        
        
        <rect x="682" y="187.51999999999998"
              width="40" height="40"
              rx="5" fill="url(#SA)"/>
      

     
   
  </g>

  <g class='  keycap'
  >

  
    <!-- Outer Border -->
    <rect x="730" y="183.51999999999998"
          width="52" height="52"
          rx="5" fill="#212224" class="outer border"/>
    
    <!-- Outer Fill -->
    <rect x="730" y="183.51999999999998"
          width="52" height="52"
          rx="5" fill="#212224"/>
    

    
      <!-- Inner Border -->
      <rect x="736" y="187.51999999999998"
            width="40" height="40"
            rx="5" fill="#26272a" class="inner border"/>
      
      <!-- Inner Fill -->
      <rect x="736" y="187.51999999999998"
            width="40" height="40"
            rx="5" fill="#26272a"/>
      
      
        
        
        <rect x="736" y="187.51999999999998"
              width="40" height="40"
              rx="5" fill="url(#SA)"/>
      

     
   
  </g>

  <g class='  keycap'
  >

  
    <!-- Outer Border -->
    <rect x="183.52000000000004" y="230.5"
          width="52" height="52"
          rx="5" fill="#212224" class="outer border"/>
    
    <!-- Outer Fill -->
    <rect x="183.52000000000004" y="230.5"
          width="52" height="52"
          rx="5" fill="#212224"/>
    

    
      <!-- Inner Border -->
      <rect x="189.52000000000004" y="234.5"
            width="40" height="40"
            rx="5" fill="#26272a" class="inner border"/>
      
      <!-- Inner Fill -->
      <rect x="189.52000000000004" y="234.5"
            width="40" height="40"
            rx="5" fill="#26272a"/>
      
      
        
        
        <rect x="189.52000000000004" y="234.5"
              width="40" height="40"
              rx="5" fill="url(#SA)"/>
      

     
   
  </g>

  <g class='  keycap'
  >

  
    <!-- Outer Border -->
    <rect x="554.5" y="230.5"
          width="52" height="52"
          rx="5" fill="#212224" class="outer border"/>
    
    <!-- Outer Fill -->
    <rect x="554.5" y="230.5"
          width="52" height="52"
          rx="5" fill="#212224"/>
    

    
      <!-- Inner Border -->
      <rect x="560.5" y="234.5"
            width="40" height="40"
            rx="5" fill="#26272a" class="inner border"/>
      
      <!-- Inner Fill -->
      <rect x="560.5" y="234.5"
            width="40" height="40"
            rx="5" fill="#26272a"/>
      
      
        
        
        <rect x="560.5" y="234.5"
              width="40" height="40"
              rx="5" fill="url(#SA)"/>
      

     
   
  </g>

  <g class='  keycap'
  
     transform="rotate(15 216 209.25)"
  >

  
    <!-- Outer Border -->
    <rect x="257.5" y="224.01999999999998"
          width="52" height="52"
          rx="5" fill="#212224" class="outer border"/>
    
    <!-- Outer Fill -->
    <rect x="257.5" y="224.01999999999998"
          width="52" height="52"
          rx="5" fill="#212224"/>
    

    
      <!-- Inner Border -->
      <rect x="263.5" y="228.01999999999998"
            width="40" height="40"
            rx="5" fill="#26272a" class="inner border"/>
      
      <!-- Inner Fill -->
      <rect x="263.5" y="228.01999999999998"
            width="40" height="40"
            rx="5" fill="#26272a"/>
      
      
        
        
        <rect x="263.5" y="228.01999999999998"
              width="40" height="40"
              rx="5" fill="url(#SA)"/>
      

     
   
  </g>

  <g class='  keycap'
  
     transform="rotate(30 270 243)"
  >

  
    <!-- Outer Border -->
    <rect x="318.52" y="203.5"
          width="52" height="79"
          rx="5" fill="#212224" class="outer border"/>
    
    <!-- Outer Fill -->
    <rect x="318.52" y="203.5"
          width="52" height="79"
          rx="5" fill="#212224"/>
    

    
      <!-- Inner Border -->
      <rect x="324.52" y="207.5"
            width="40" height="67"
            rx="5" fill="#26272a" class="inner border"/>
      
      <!-- Inner Fill -->
      <rect x="324.52" y="207.5"
            width="40" height="67"
            rx="5" fill="#26272a"/>
      
      
        
        
        <rect x="324.52" y="207.5"
              width="40" height="67"
              rx="5" fill="url(#SA)"/>
      

     
   
  </g>

  <g class='  keycap'
  
     transform="rotate(-30 337.5 513)"
  >

  
    <!-- Outer Border -->
    <rect x="527.5" y="332.02"
          width="52" height="79"
          rx="5" fill="#212224" class="outer border"/>
    
    <!-- Outer Fill -->
    <rect x="527.5" y="332.02"
          width="52" height="79"
          rx="5" fill="#212224"/>
    

    
      <!-- Inner Border -->
      <rect x="533.5" y="336.02"
            width="40" height="67"
            rx="5" fill="#26272a" class="inner border"/>
      
      <!-- Inner Fill -->
      <rect x="533.5" y="336.02"
            width="40" height="67"
            rx="5" fill="#26272a"/>
      
      
        
        
        <rect x="533.5" y="336.02"
              width="40" height="67"
              rx="5" fill="url(#SA)"/>
      

     
   
  </g>

  <g class='  keycap'
  
     transform="rotate(-15 587.25 648)"
  >

  
    <!-- Outer Border -->
    <rect x="595" y="237.51999999999998"
          width="52" height="52"
          rx="5" fill="#212224" class="outer border"/>
    
    <!-- Outer Fill -->
    <rect x="595" y="237.51999999999998"
          width="52" height="52"
          rx="5" fill="#212224"/>
    

    
      <!-- Inner Border -->
      <rect x="601" y="241.51999999999998"
            width="40" height="40"
            rx="5" fill="#26272a" class="inner border"/>
      
      <!-- Inner Fill -->
      <rect x="601" y="241.51999999999998"
            width="40" height="40"
            rx="5" fill="#26272a"/>
      
      
        
        
        <rect x="601" y="241.51999999999998"
              width="40" height="40"
              rx="5" fill="url(#SA)"/>
      

     
   
  </g>

      </g>
    </g>
  </svg>
